<svg width="25" height="25" viewBox="0 0 25 25" fill="none" xmlns="http://www.w3.org/2000/svg">
<path d="M16.2495 15.7924C17.3835 15.8769 18.5131 15.7183 19.5662 15.3373C19.2849 16.1149 18.8832 16.8481 18.3724 17.5088C17.443 18.7109 16.1904 19.6235 14.7613 20.1397C13.3321 20.6559 11.7855 20.7544 10.3024 20.4237C8.81931 20.0931 7.46107 19.3468 6.3866 18.2724C5.31214 17.1979 4.56591 15.8397 4.23521 14.3566C3.90452 12.8735 4.00304 11.3269 4.51926 9.89771C5.03547 8.46856 5.94803 7.21599 7.15015 6.28656C7.81087 5.77571 8.54405 5.3741 9.32166 5.09275C8.94065 6.14587 8.78201 7.2755 8.86657 8.40947C9.00907 10.3203 9.83266 12.1165 11.1876 13.4714C12.5425 14.8263 14.3387 15.6499 16.2495 15.7924Z" fill="#1F2A48" stroke="#1F2A48" stroke-width="2" stroke-linecap="round" stroke-linejoin="round"/>
<g clip-path="url(#clip0)">
<path d="M6.48997 11.4291L7.3273 12.2659L8.49196 12.0516L7.95444 13.1061L8.51886 14.1466L7.34936 13.9614L6.53407 14.8201L6.34863 13.651L5.28034 13.1415L6.33491 12.6027L6.48997 11.4291Z" fill="#F9E214" stroke="#F9E214" stroke-width="0.339152" stroke-linecap="round" stroke-linejoin="round"/>
</g>
<g clip-path="url(#clip1)">
<path d="M11.9416 14.924L12.2278 16.0727L13.3363 16.4892L12.3322 17.1159L12.2796 18.2984L11.3728 17.537L10.2316 17.8526L10.6753 16.7552L10.0224 15.7679L11.2038 15.8498L11.9416 14.924Z" fill="#F9E214" stroke="#F9E214" stroke-width="0.339152" stroke-linecap="round" stroke-linejoin="round"/>
</g>
<defs>
<clipPath id="clip0">
<rect width="4.06982" height="4.06982" fill="white" transform="translate(4.45398 11.7619) rotate(-18.7453)"/>
</clipPath>
<clipPath id="clip1">
<rect width="4.06982" height="4.06982" fill="white" transform="translate(10.0253 14.1598) rotate(12.2795)"/>
</clipPath>
</defs>
</svg>
